<?xml version="1.0" encoding="UTF-8"?>
<svg id="Layer_1" xmlns="http://www.w3.org/2000/svg" version="1.1" xmlns:xlink="http://www.w3.org/1999/xlink" viewBox="0 0 167.2 141.8">
  <!-- Generator: Adobe Illustrator 29.1.0, SVG Export Plug-In . SVG Version: 2.1.0 Build 142)  -->
  <defs>
    <style>
      .st0 {
        fill: #9ed6be;
      }

      .st1 {
        fill: #8dd6ed;
      }

      .st2 {
        fill: #2988c5;
      }

      .st3 {
        fill: #f3fafb;
      }

      .st3, .st4, .st5, .st6, .st7 {
        fill-rule: evenodd;
      }

      .st8 {
        fill: #fff;
      }

      .st9 {
        fill: #3d3d3c;
      }

      .st4 {
        fill: url(#linear-gradient1);
      }

      .st10 {
        fill: #6cad92;
      }

      .st5 {
        fill: #29abe2;
      }

      .st6 {
        fill: #8acfef;
      }

      .st7 {
        fill: url(#linear-gradient);
      }
    </style>
    <linearGradient id="linear-gradient" x1="-888.5" y1="-144.2" x2="-871.2" y2="-119.5" gradientTransform="translate(195.5 -868.2) rotate(-76.1) scale(1 -1)" gradientUnits="userSpaceOnUse">
      <stop offset="0" stop-color="#53c5f1"/>
      <stop offset="1" stop-color="#d5eff9"/>
    </linearGradient>
    <linearGradient id="linear-gradient1" x1="-220.2" y1="1437" x2="-202.9" y2="1461.7" gradientTransform="translate(-1405.3 49.1) rotate(101.3) scale(1 -1)" gradientUnits="userSpaceOnUse">
      <stop offset="0" stop-color="#53c5f1"/>
      <stop offset="1" stop-color="#d5eff9"/>
    </linearGradient>
  </defs>
  <g>
    <path class="st5" d="M92,12.8c1,12.9,14.3,17.8,37.3,23.7,26.5,6.8,37.9,34,37.9,34-2.4-5.2-6.5-23.1-25.7-46C117.8-3.8,91-.1,92,12.8h0Z"/>
    <path class="st6" d="M160.8,57.9c-5-15.6-27.8-44.4-40.1-49.5-16.7-6.9-23-.7-23.6,0-.7.7-4.4,5.6,1.6,13.1s16.8,9.9,22.7,11.3c12.9,3.2,25.6,3.3,39.5,25.1h-.1Z"/>
    <path class="st3" d="M98.6,11.9c.3,1,2,1.3,3.9.6,1.9-.7,3.2-2.1,2.9-3.2-.3-1-2-1.3-3.9-.6-1.9.7-3.2,2.1-2.9,3.2Z"/>
    <path class="st7" d="M122.4,12.3c.8-.6-9-6-17-5.9-2.5,0-4.8.1-6.5,1.6-2.9,2.5-3.3,4.5-2.9,6.6.6,3.2,3.7,6.1,6.2,7.7,4.1,2.7,10.6,4.5,10.6,4.5,0,0-15.3-5-16.2-12.7-.4-3.5,3.3-6.9,7.6-7,7.4-.1,12.3,1.6,18.3,5v.2Z"/>
  </g>
  <g>
    <path class="st5" d="M77.7,129.4c-1.6-12.8-15.1-17.1-38.3-22C12.6,101.8,0,75.2,0,75.2c2.6,5.1,7.5,22.8,27.8,44.8,25,27.2,51.6,22.3,50,9.4h-.1Z"/>
    <path class="st6" d="M6.9,87.4c5.7,15.3,29.8,43.1,42.3,47.7,17,6.2,23-.4,23.6-1.1s4.1-5.8-2.2-13c-6.3-7.2-17.3-9.1-23.2-10.2-13-2.6-25.8-2.1-40.6-23.3h.1Z"/>
    <path class="st3" d="M71.2,130.6c-.3-1-2.1-1.2-4-.4-1.9.8-3.1,2.3-2.8,3.3.3,1,2.1,1.2,4,.4,1.9-.8,3.1-2.3,2.8-3.3Z"/>
    <path class="st4" d="M47.3,131.3c-.7.6,9.3,5.5,17.3,5.1,2.5-.1,4.7-.4,6.4-1.9,2.8-2.6,3.1-4.7,2.6-6.7-.8-3.2-4-5.9-6.5-7.4-4.2-2.5-10.8-4.1-10.8-4.1,0,0,15.5,4.3,16.8,11.9.6,3.5-2.9,7-7.2,7.3-7.4.5-12.4-1.1-18.5-4.2h0Z"/>
  </g>
  <g>
    <rect class="st1" x="80.4" y="45.5" width="7.5" height="1.4"/>
    <rect class="st1" x="73.2" y="70.1" width="21.3" height="6.8"/>
    <rect class="st1" x="74" y="65.2" width="20.6" height="11.7" rx="5.8" ry="5.8"/>
    <ellipse class="st1" cx="84" cy="59" rx="10.8" ry="13.9"/>
    <rect class="st1" x="73.3" y="92.2" width="21.2" height="10.6"/>
    <rect class="st2" x="79.1" y="38.2" width="9.7" height="5.3"/>
    <rect class="st2" x="73.3" y="78.9" width="21.4" height="11.3"/>
    <path class="st9" d="M96.6,77.9v-1.4c0-.9,0-1.8-.2-2.7-.3-2.2-1-4.3-2-6.2,1.3-2.5,1.9-5.4,1.9-8.5s-.7-6.1-2-8.6c-1.2-2.3-2.7-4.1-4.6-5.3.6-.3,1.1-.9,1.1-1.6v-4.6c0-1.6-1.3-2.9-2.9-2.9h-7.7c-1.6,0-2.9,1.3-2.9,2.9v4.6c0,.7.4,1.3,1.1,1.6-1.9,1.2-3.4,3.1-4.6,5.3-1.3,2.6-2,5.5-2,8.6s.7,5.9,1.9,8.5c-1,1.9-1.7,4-2,6.2-.1.9-.2,1.8-.2,2.7v21.5c0,1.8.7,3.5,2,4.8s3,2,4.8,2h11.6c1.8,0,3.5-.7,4.8-2s2-3,2-4.8v-20.1h0ZM79.1,39.2c0-.5.4-1,1-1h7.7c.5,0,1,.4,1,1v4.3h-9.7v-4.3ZM73.5,74.2c.3-2.1,1-4.2,2-5.9,0-.2.1-.3.1-.5s0-.3-.1-.5c-1.3-2.4-1.9-5.1-1.9-8,0-5.5,2.5-10.5,6.3-12.7.3-.2.5-.5.5-.9v-.3h7.2v.3c0,.4.2.7.5.9,3.8,2.2,6.3,7.2,6.3,12.7s-.7,5.7-1.9,8c0,.1-.1.3-.1.5s0,.3.1.5c1,1.7,1.7,3.8,2,5.9h0c.1.8.2,1.6.2,2.4v.3h-21.3v-.3c0-.8,0-1.6.2-2.4h-.1ZM94.6,78.9v11.3h-21.2v-11.3h21.2ZM89.8,102.8h-11.6c-2.7,0-4.8-2.2-4.8-4.8v-5.8h21.3v5.8c0,2.7-2.2,4.8-4.8,4.8h-.1Z"/>
    <path class="st8" d="M86.9,85.2c-.2-1-.7-1.8-1.3-2.6-.2-.4-.5-.7-.7-1.1-.1-.2-.2-.4-.3-.6,0,0-.1-.7,0-.6,0,0-1.8,2.5-2.2,3-.7,1-1.2,2.2-1,3.5.1,1.6,1.6,2.6,3.1,2.4,1.2-.1,2.2-.9,2.4-2.1.1-.6,0-1.2,0-1.8h0Z"/>
  </g>
  <g>
    <g>
      <path class="st10" d="M113,141.2s15.2,4.2,29.9-9.7c18.9-17.8,10.2-58.2,10.2-58.2,0,0-5.2,9.5-24.9,21.5-19.4,11.8-24.6,24.9-19.4,42.4,0,0,30.3-11.4,34.3-41,0,0-5,21.1-31.1,34.4,0,0-2.7-16.7,14.8-29.2,13.1-9.4,13.8-7.5,23.4-16.2,0,0,5.8,48.8-37.1,56h0Z"/>
      <path class="st0" d="M114,140.9s14.2,4,28.1-9c17.8-16.6,9.9-54.4,9.9-54.4,0,0-4.9,8.9-23.4,20-18.2,10.9-23.2,23.2-18.4,39.6,0,0,28.4-10.6,32.3-38.2,0,0-4.8,19.7-29.3,32,0,0-2.5-15.6,14-27.3,12.3-8.7,13-6.9,22-15.1,0,0,5.2,45.7-35,52.3h-.2Z"/>
    </g>
    <path class="st3" d="M151.1,80.2c-.6,0-1,.9-.9,2,0,1.1.7,2.1,1.3,2.1s1-.9.9-2c0-1.1-.7-2.1-1.3-2.1Z"/>
  </g>
  <g>
    <path class="st10" d="M57.9.9s-14.9-4.9-30.3,8.3c-19.7,16.9-13.1,57.6-13.1,57.6,0,0,5.6-9.2,25.9-20.3,19.9-10.8,25.8-23.7,21.4-41.4,0,0-30.8,10-36.2,39.3,0,0,6-20.8,32.7-32.8,0,0,1.9,16.8-16.2,28.5-13.5,8.7-14.2,6.8-24.1,15.1,0,0-3.4-49,39.8-54.2h.1Z"/>
    <path class="st0" d="M56.9,1.2s-14-4.7-28.5,7.6c-18.6,15.7-12.5,53.9-12.5,53.9,0,0,5.3-8.6,24.4-18.8,18.7-10.1,24.3-22,20.3-38.7,0,0-28.9,9.2-34.1,36.6,0,0,5.7-19.5,30.8-30.6,0,0,1.7,15.7-15.3,26.6-12.7,8.1-13.3,6.3-22.7,14,0,0-3-45.9,37.5-50.5h.1Z"/>
    <path class="st3" d="M16.9,60c.6,0,1.1-.9,1-2,0-1.1-.6-2.1-1.2-2.1s-1.1.9-1,2c0,1.1.6,2.1,1.2,2.1Z"/>
  </g>
</svg>